<?xml version="1.0" encoding="UTF-8" standalone="no"?>
<!-- Created with Inkscape (http://www.inkscape.org/) -->

<svg
   version="1.1"
   id="svg2"
   width="109.78667"
   height="35.226665"
   viewBox="0 0 109.78667 35.226665"
   sodipodi:docname="wkucuplong_w.eps"
   xmlns:inkscape="http://www.inkscape.org/namespaces/inkscape"
   xmlns:sodipodi="http://sodipodi.sourceforge.net/DTD/sodipodi-0.dtd"
   xmlns="http://www.w3.org/2000/svg"
   xmlns:svg="http://www.w3.org/2000/svg">
  <defs
     id="defs6" />
  <sodipodi:namedview
     id="namedview4"
     pagecolor="#ffffff"
     bordercolor="#000000"
     borderopacity="0.25"
     inkscape:showpageshadow="2"
     inkscape:pageopacity="0.0"
     inkscape:pagecheckerboard="0"
     inkscape:deskcolor="#d1d1d1" />
  <g
     id="g8"
     inkscape:groupmode="layer"
     inkscape:label="ink_ext_XXXXXX"
     transform="matrix(1.3333333,0,0,-1.3333333,0,35.226667)">
    <g
       id="g10"
       transform="scale(0.1)">
      <path
         d="m 776.602,20.0039 c -11.903,-9 -40,-24.80078 -93,-18.59765 C 617.898,9.20313 566.301,80.7031 540.398,113.004 L 527.699,101.805 V 46.9063 c -0.144,-2.1094 0.379,-4.211 1.5,-6 1.446,-1.5782 3.324,-2.6915 5.403,-3.2032 v -4.0976 h -45.704 v 4.0976 c 2.114,0.4883 4.008,1.6446 5.403,3.3008 1.101,1.7656 1.625,3.8242 1.5,5.9024 V 193.105 c -0.055,4.102 -3.399,7.399 -7.5,7.399 -3,0.039 -5.727,-1.738 -6.903,-4.5 -1.753,-3.578 -3.222,-7.289 -4.398,-11.098 l -39.199,-118.9997 -11,-32.3008 h -22.602 l -10,30.8008 -30,90.7967 L 323.5,33.6055 H 301 L 251,184.906 c -1.27,4.52 -3.187,8.832 -5.699,12.797 -1.727,2.379 -4.309,3.996 -7.199,4.5 v 4.102 h 50.699 v -4.102 c -4.5,-1.098 -6.801,-3.598 -6.801,-7.398 0.191,-2.864 0.762,-5.688 1.699,-8.399 l 28.903,-91.3005 31.199,91.8005 c 1.023,2.528 1.695,5.188 2,7.899 0,3.898 -2.301,6.398 -7.102,7.398 v 4.102 h 53 v -4.102 c -4.801,-1.5 -7.301,-4.199 -7.301,-8.199 0.344,-2.598 0.981,-5.145 1.903,-7.598 l 30,-91.7029 28.801,89.9999 c 1.171,3.223 1.91,6.586 2.199,10 0,3.703 -2.602,6.203 -7.699,7.301 v 4.301 H 534.5 v -4.102 c -2.113,-0.414 -4.02,-1.543 -5.398,-3.199 -1.102,-1.762 -1.625,-3.824 -1.5,-5.899 v -52.699 l 60,50 c 2.796,2.598 4.199,4.797 4.199,6.399 0,1.601 -2.102,4.101 -6.199,5 v 4.5 h 105 v -4.102 c -2.133,-0.437 -4.067,-1.562 -5.5,-3.199 -1.122,-1.789 -1.649,-3.891 -1.5,-6 v -86.098 c -0.227,-7.5974 0.273,-15.199 1.5,-22.7029 0.656,-4.0976 2.3,-7.9765 4.796,-11.2968 9.02,-9.5977 22.012,-14.4102 35.102,-13 13.09,-1.4102 26.086,3.4023 35.102,13 2.711,3.2695 4.597,7.1445 5.5,11.2968 1.191,7.3399 1.691,14.7696 1.5,22.2029 v 86.598 c 0.082,2.101 -0.438,4.187 -1.5,6 -1.516,1.641 -3.512,2.762 -5.704,3.199 v 4.102 h 43 v -4.102 c -2.058,-0.476 -3.914,-1.598 -5.296,-3.199 -1.122,-1.789 -1.649,-3.891 -1.5,-6 V 96.2031 c 0.906,-14.2226 -2.067,-28.4297 -8.602,-41.0976 -10,-16.3008 -31.5,-24.5 -63.602,-24.5 -18.683,-1.0977 -37.242,3.6562 -53.097,13.5976 -7.215,5.1211 -12.5,12.5157 -15,21 -2.875,10.1797 -4.227,20.7266 -4,31.3008 v 97.6991 c -0.469,3.906 -3.871,6.785 -7.801,6.602 -2.555,-0.157 -5,-1.098 -7,-2.7 l -73.199,-64.3 c 23.597,-30 62.097,-82.8987 99,-105.8987 46,-28.601613 92.301,-12.3008 111.801,-4.3008 l 2,-3.6016"
         style="fill:#ffffff;fill-opacity:1;fill-rule:nonzero;stroke:none"
         id="path12" />
      <path
         d="M 801.602,32.9063 H 804 c 2.699,0 5,0.7968 5,3.0976 0,2.3008 -1.199,3.1016 -4.602,3.1016 -0.929,0.082 -1.867,0.082 -2.796,0 z m 0,-10.8008 h -3.5 v 19.1992 c 2.171,0.4297 4.382,0.6328 6.597,0.6016 2.145,0.1679 4.281,-0.3594 6.102,-1.5 1.312,-0.9415 2.066,-2.4844 2,-4.1016 -0.125,-2.1797 -1.672,-4.0156 -3.801,-4.5 v 0 c 1.699,-0.6992 2.602,-2.1992 3.301,-4.6992 0.101,-1.6719 0.543,-3.3047 1.301,-4.8008 h -3.704 c -0.82,1.5508 -1.332,3.25 -1.5,5 0,2.1016 -1.699,3 -4.5,3 h -2.296 v -8.1992"
         style="fill:#ffffff;fill-opacity:1;fill-rule:nonzero;stroke:none"
         id="path14" />
      <path
         d="m 805,17.0039 c -8.285,0 -15,6.7188 -15,15 0,8.2852 6.715,15 15,15 8.285,0 15,-6.7148 15,-15 0,-8.2812 -6.715,-15 -15,-15 m 0,33.4024 c -10.16,0 -18.398,-8.2383 -18.398,-18.4024 0,-10.1601 8.238,-18.3984 18.398,-18.3984 10.16,0 18.398,8.2383 18.398,18.3984 v 0 c 0,10.1641 -8.238,18.4024 -18.398,18.4024"
         style="fill:#ffffff;fill-opacity:1;fill-rule:nonzero;stroke:none"
         id="path16" />
      <path
         d="m 5.80078,33.6055 c 0,0 0,157.6995 0,158.1995 0,4.5 -5.80078,3.8 -5.80078,3.8 v 10.7 H 38.1016 V 74.2031 C 61.8281,79.3047 83.4102,91.5938 99.8984,109.406 116.832,91.5352 138.809,79.2578 162.898,74.2031 V 206.305 h 38.204 v -10.7 c 0,0 -5.903,0.598 -5.903,-3.902 V 33.6055 H 5.80078"
         style="fill:#ffffff;fill-opacity:1;fill-rule:nonzero;stroke:none"
         id="path18" />
      <path
         d="m 100.5,168.504 c -6.1289,0 -11.1016,4.969 -11.1016,11.101 0,6.129 4.9727,11.098 11.1016,11.098 6.129,0 11.102,-4.969 11.102,-11.098 v 0 c 0,-6.132 -4.973,-11.101 -11.102,-11.101 m 31.301,52.199 c 0,0 -6.403,-2.5 -10.699,8.602 -2.258,6.402 -7.539,11.269 -14.102,13 v 9.101 c 1.32,0.09 2.32,1.235 2.23,2.559 -0.007,0.082 -0.015,0.16 -0.031,0.238 -0.148,1.152 -1.136,2.012 -2.301,2 -0.101,2.61 -2.191,4.699 -4.796,4.801 v 3.199 h -3.2036 v -3.199 c -2.5859,-0.149 -4.6484,-2.211 -4.7968,-4.801 -1.1407,0.008 -2.0977,-0.863 -2.2032,-2 -0.0586,-1.254 0.8555,-2.344 2.1016,-2.5 v -9.098 c -6.6797,-1.707 -12.0039,-6.734 -14.1016,-13.3 -4.2968,-11.102 -10.6992,-8.602 -10.6992,-8.602 l -6.3008,-6.5 7,-7 h 1.7032 v -80 c 10.9062,5.785 20.6679,13.512 28.7964,22.801 8.422,-9.137 18.415,-16.688 29.5,-22.301 v 80 h 1.704 l 7.097,7 -6.898,6"
         style="fill:#ffffff;fill-opacity:1;fill-rule:nonzero;stroke:none"
         id="path20" />
    </g>
  </g>
</svg>
